<?xml version="1.0" encoding="UTF-8" standalone="no"?>
<!-- Generator: Adobe Illustrator 15.1.0, SVG Export Plug-In . SVG Version: 6.00 Build 0)  -->

<svg
   version="1.1"
   id="Layer_1"
   x="0px"
   y="0px"
   width="365px"
   height="290px"
   viewBox="0 0 365 290"
   enable-background="new 0 0 365 290"
   xml:space="preserve"
   sodipodi:docname="trollface.svg"
   inkscape:version="1.3 (0e150ed6c4, 2023-07-21)"
   xmlns:inkscape="http://www.inkscape.org/namespaces/inkscape"
   xmlns:sodipodi="http://sodipodi.sourceforge.net/DTD/sodipodi-0.dtd"
   xmlns="http://www.w3.org/2000/svg"
   xmlns:svg="http://www.w3.org/2000/svg"><defs
   id="defs26" /><sodipodi:namedview
   id="namedview26"
   pagecolor="#ffffff"
   bordercolor="#000000"
   borderopacity="0.25"
   inkscape:showpageshadow="2"
   inkscape:pageopacity="0.0"
   inkscape:pagecheckerboard="0"
   inkscape:deskcolor="#d1d1d1"
   inkscape:zoom="1.4586207"
   inkscape:cx="-93.92435"
   inkscape:cy="-8.2269504"
   inkscape:window-width="1920"
   inkscape:window-height="1050"
   inkscape:window-x="0"
   inkscape:window-y="30"
   inkscape:window-maximized="1"
   inkscape:current-layer="g26" />&#10;<g
   id="g26">&#10;	<path
   fill-rule="evenodd"
   clip-rule="evenodd"
   d="M186.523,42.629c-5.146,4.192-9.271,9.407-9.339,18.68   C173.461,53.847,177.921,43.395,186.523,42.629z"
   id="path1" />&#10;	<path
   fill-rule="evenodd"
   clip-rule="evenodd"
   d="M123.948,53.836c7.713-4.167,10.029,14.72,5.604,19.613   C130.161,64.435,129.688,56.502,123.948,53.836z"
   id="path2" />&#10;	<path
   fill-rule="evenodd"
   clip-rule="evenodd"
   d="M258.439,84.657c-6.472,7.459-15.34,1.071-24.283,0   c-19.291-2.311-37.813,6.279-51.368,12.142c-30.483-15.506,8.09-36.934,38.293-35.49C241.571,62.287,255.368,71.441,258.439,84.657   z M206.138,68.78c-9.442,5.189-24.801,4.463-25.218,18.679c13.235,0.783,15.879-9.026,28.953-8.405   C208.595,75.662,209.309,70.278,206.138,68.78z M249.1,80.922c-0.981-4.312-4.509-6.076-10.273-5.604   C238.269,81.168,246.137,78.592,249.1,80.922z"
   id="path3" />&#10;	<path
   fill-rule="evenodd"
   clip-rule="evenodd"
   d="M135.156,84.657c4.476-1.044,8.57-2.613,12.142,0   c-0.284,6.877-7.897,6.424-12.142,9.34c0,5.915,0,11.83,0,17.745c-5.259,4.703-12.976,6.949-16.812,13.076   c3.135,8.071,8.689,13.726,15.877,17.745c4.63-0.261,6.327-5.545,11.208-2.802c-6.817,22.618-25.415,0.727-32.689-8.406   c-2.53,1.206-3.32,4.151-7.472,3.736c0.448-2.938-1.33-3.651-1.868-5.604c-7.304,1.725-10.321,7.736-19.613,7.472   c16.933-7.661,29.157-20.031,43.896-29.887c0-4.358,0-8.717,0-13.075c-12.206-8.964-38.5-3.84-52.302-11.208   C83.698,60.844,125.495,70.63,135.156,84.657z M88.458,79.054c4.574,1.797,12.003,0.818,15.877-0.935   C99.76,76.322,92.331,77.302,88.458,79.054z"
   id="path4" />&#10;	<path
   fill-rule="evenodd"
   clip-rule="evenodd"
   d="M262.175,78.119c3.953-1.745,9.671,2.763,15.878,1.868   c0.017,4.97-8.155,5.776-12.142,3.736c0.127-2.676,6.411,0.807,6.538-1.868C269.202,80.433,264.614,80.351,262.175,78.119z"
   id="path5" />&#10;	<path
   fill-rule="evenodd"
   clip-rule="evenodd"
   d="M71.646,81.855c-23.154-1.819-48.734,7.468-49.5,29.887   c-0.111,3.249,0.055,10.499,2.802,14.943c4.358,7.051,15.351,3.564,18.679,13.076c-17.196-4.129-25.099-13.865-23.349-30.821   C22.707,85.399,45.711,76.568,71.646,81.855z"
   id="path6" />&#10;	<path
   fill-rule="evenodd"
   clip-rule="evenodd"
   d="M335.024,98.667c-6.505-12.485-20.566-17.415-41.095-15.878   C309.887,79.15,332.258,83.12,335.024,98.667z"
   id="path7" />&#10;	<path
   fill-rule="evenodd"
   clip-rule="evenodd"
   d="M262.175,87.459c1.246-2.656,4.153,0.721,5.604,0.935   C266.478,91.106,263.17,88.129,262.175,87.459z"
   id="path8" />&#10;	<path
   fill-rule="evenodd"
   clip-rule="evenodd"
   d="M219.213,88.394c9.786,1.591,14.354,12.004,26.151,13.075   c14.428,1.31,21.944-8.832,34.557-12.142c34.323-9.008,62.154,22.959,36.425,50.435c-4.15-9.265,4.082-13.921,2.802-25.218   c-1.492-13.156-14.128-21.953-28.953-19.613c-4.989,0.788-9.372,6.17-14.943,8.406C255.177,111.395,219.595,110.784,219.213,88.394   z"
   id="path9" />&#10;	<path
   fill-rule="evenodd"
   clip-rule="evenodd"
   d="M45.495,90.261c-3.193,5.843-16.902,9.244-12.142,26.151   c-4.729-4.163,0.298-12.912-0.934-19.613C36.929,94.771,41.102,92.406,45.495,90.261z"
   id="path10" />&#10;	<path
   fill-rule="evenodd"
   clip-rule="evenodd"
   d="M84.722,108.007c4.129-1.163,5.093-5.492,11.208-4.67   c3.946,12.136-11.755,12.458-23.349,12.142c-1-4.604-2.942-8.267-6.538-10.274c-10.696-1.044-17.042,2.26-26.151,2.803   C44.802,88.732,76.079,99.026,84.722,108.007z"
   id="path11" />&#10;	<path
   fill-rule="evenodd"
   clip-rule="evenodd"
   d="M313.543,127.62c-4.974,1.819-8.905-0.382-14.009-0.935   c-3.296,2.591-6.112,8.619-3.736,14.01c-11.935,10.238-19.867,29.062-31.755,42.028c-29.346,32.013-80.396,45.875-146.633,42.963   c-21.421-0.941-46.364-3.273-56.972-14.01c-16.806-17.009-17.606-69.736-2.802-90.595c1.437-2.922-0.408-9.125,2.802-10.273   c7.459,2.57,3.389,13.441,5.604,19.613c4.615,12.864,30.345,21.159,48.566,23.35c68.329,8.211,126.044-27.586,170.916-42.963   c1.343-3.327,0.954-8.386,3.736-10.273c5.58,1.948,3.293,6.625,5.604,10.273C299.982,118.893,312.243,119.485,313.543,127.62z    M256.571,133.224c0,4.67,0,9.34,0,14.01c17.53-3.018,32.683-8.412,33.623-28.02C274.791,119.688,268.945,129.72,256.571,133.224z    M57.636,143.497c2.292-0.261,4.305-5.573,2.802-6.538C59.663,139.297,57.879,140.628,57.636,143.497z M205.203,149.102   c-0.035,6.262,2.396,10.057,2.802,15.877c15.756-6.971,39.716-5.737,41.095-27.085C235.18,138.609,220.17,146.32,205.203,149.102z    M66.976,166.847c0.883-6.916,5.052-16.135,0.934-22.415C64.852,149.008,57.265,163.712,66.976,166.847z M257.505,174.318   c2.373-1.989,5.732-3.469,8.406-6.538c3.599-4.131,10.779-16.792,9.34-16.812C264.421,152.788,248.867,162.037,257.505,174.318z    M77.25,170.582c4.59-1.431,8.138,3.009,10.274,0.935c-3.352-5.56,3.273-9.159,2.802-14.943c-5.494-0.11-7.863-3.345-12.142-4.67   C73.106,155.974,76.713,164.221,77.25,170.582z M195.863,152.837c-11.24,2.77-23.607,4.412-34.557,7.472c0,4.67,0,9.34,0,14.01   c16.108,1.165,26.879-3.008,39.227-5.604C199.478,162.921,199.495,156.055,195.863,152.837z M94.061,171.517   c8.027,2.247,17.244,3.304,28.019,2.802c-0.616-4.475,0.96-10.269,0-12.142c-8.43-0.91-18.129-0.551-24.283-3.735   C96.551,162.799,96.351,168.202,94.061,171.517z M131.42,162.177c0.224,4.894-2.273,7.066-2.802,11.208   c6.938,2.091,17.681,0.376,26.151,0.934c0-4.67,0-9.34,0-14.01C145.928,159.874,140.743,163.094,131.42,162.177z M211.741,178.055   c-1.32,11.904,6.023,15.146,7.472,24.283c13.203-5.166,22.749-13.987,33.623-21.481c-5.313-2.472-4.873-10.694-6.538-16.812   C236.302,170.238,224.683,174.807,211.741,178.055z M168.778,190.196c-0.727,9.132,1.317,15.493,0.934,24.282   c18.011,1.2,29.297-4.325,42.029-8.405c-2.256-9.264-8.135-14.903-8.406-26.151C193.193,184.724,182.508,188.981,168.778,190.196z    M66.042,203.271c-0.139-7.333-3.821-11.122-7.472-14.943C60.173,194.196,62.315,199.526,66.042,203.271z M83.788,211.677   c-2.131-7.831-4.333-15.592-11.208-18.679c-0.543,5.212,2.791,6.548,2.802,11.207c-0.58,3.212-5.024,1.893-5.604,2.802   C73.072,209.939,78.548,210.689,83.788,211.677z M133.288,195.8c0.056,8.038,3.105,13.084,2.802,21.481   c8.71-0.318,18.873,0.815,26.151-0.935c-0.284-4.262-1.548-15.125-0.934-23.349C152.832,194.852,141.989,197.003,133.288,195.8z    M92.193,212.611c3.603,1.378,7.057,2.905,12.142,2.802c-1.25-6.222-5.409-9.535-5.604-16.812   c-4.921-0.06-6.855-3.107-12.142-2.802C87.456,202.192,94.924,205.574,92.193,212.611z M106.203,197.668   c1.691,7.025,5.9,11.534,7.472,18.679c4.415,0.281,11.899,2.389,15.877,0C128.68,203.571,121.551,192.951,106.203,197.668z"
   id="path12" />&#10;	<path
   fill-rule="evenodd"
   clip-rule="evenodd"
   d="M197.731,121.082c0.981,11.655-1.498,23.475-13.075,19.613   c-1.245-8.125,8.42-7.704,6.537-14.01c-1.758-5.887-9.642-2.651-16.811-5.604C176.042,109.851,193.845,115.804,197.731,121.082z"
   id="path13" />&#10;	<path
   fill-rule="evenodd"
   clip-rule="evenodd"
   d="M200.533,115.479c3.937-0.161,0.641,2.091,0,2.802   c3.373,10.495,23.844-1.871,28.02,7.472C220.211,119.987,196.217,130.807,200.533,115.479z"
   id="path14" />&#10;	<path
   fill-rule="evenodd"
   clip-rule="evenodd"
   d="M31.485,117.346c3.703,3.146,6.414,7.285,11.208,9.34   C37.045,129.198,31.933,123.141,31.485,117.346z"
   id="path15" />&#10;	<path
   fill-rule="evenodd"
   clip-rule="evenodd"
   d="M180.92,129.487c-0.19,2.923,0.63,6.856-0.934,8.406   c-5.957-4.733-16.772,0.167-25.217-2.802C155.783,124.985,172.876,127.209,180.92,129.487z"
   id="path16" />&#10;	<path
   fill-rule="evenodd"
   clip-rule="evenodd"
   d="M258.439,207.007c1.207,2.192-6.614,3.027-10.273,4.67   c-27.143,12.185-56.536,34.2-97.133,30.821C197.218,241.051,221.287,217.487,258.439,207.007z"
   id="path17" />&#10;	<path
   fill-rule="evenodd"
   clip-rule="evenodd"
   d="M65.108,225.687c9.354,12.75,27.871,16.337,48.566,17.745   C93.812,244.924,68.588,243.69,65.108,225.687z"
   id="path18" />&#10;	<path
   fill-rule="evenodd"
   clip-rule="evenodd"
   d="M161.307,232.225c-13.334,0.617-33.814,3.582-48.566,0.934   c0.823,0.147-5.321,1.021-1.868-0.934C128.293,233.028,146.332,230.921,161.307,232.225z"
   id="path19" />&#10;	<path
   fill-rule="evenodd"
   clip-rule="evenodd"
   d="M127.684,243.432c3.443-2.16,10.882-0.325,15.877-0.934   C140.118,244.658,132.679,242.823,127.684,243.432z"
   id="path20" />&#10;	<path
   fill-rule="evenodd"
   clip-rule="evenodd"
   d="M38.023,42.629C82.539,0.251,168.45,6.151,250.968,7.138   c7.848,0.094,16.719-1.368,23.349,0c11.871,2.451,25.224,17.023,31.755,28.02c4.845,8.154,7.067,20.015,11.208,27.085   c13.085,22.346,46.477,27.908,37.358,67.245c-4.239,18.291-23.693,25.693-33.623,43.897c-3.577,6.559-4.243,13.956-7.472,19.613   c-12.425,21.775-44.768,38.018-71.915,50.434c-20.634,9.438-43.315,23.67-62.576,28.953c-12.695,3.482-31.551,6.412-50.435,10.273   c-27.106,5.544-57.922,8.286-79.387-0.934c-11.146-4.787-23.773-16.287-26.151-27.085c-5.578-25.329,11.102-67.953,3.736-98.066   c-5.056-20.67-22.906-34.925-16.812-60.708C15.172,74.001,40.463,75.064,38.023,42.629z M346.232,130.422   c10.41-28.818-14.1-53.59-47.633-52.303c6.19-2.108,12.84-0.034,19.613,0c-16.228-19.917-20.158-60.96-54.17-64.443   c-47.05-4.819-108.237,1.462-153.17,5.604c31.311,8.204,65.113-5.872,98.067-2.802c30.411,2.834,51.748,21.332,68.18,35.491   c-19.244-10.752-39.329-30.848-69.114-33.623c-24.766-2.308-42.278,4.428-63.51,5.604c-17.014,0.942-34.695-3.396-49.5-1.868   c-17.392,1.796-47.009,16.645-51.368,29.888c-1.588,4.823,0.142,10.746-1.868,15.877c-7.14,18.231-32.366,23.279-23.349,54.17   c2.51,8.6,9.292,13.555,12.142,19.614c8.393,17.847,5.012,46.601,2.802,68.18c-1.381,13.484-5.358,29.068-2.802,42.028   c6.843,34.686,73.448,29.463,105.539,21.481c11.469-2.854,21.589-8.207,30.821-9.34c4.057-0.498,8.442,1.187,14.944,0   c9.153-1.672,21.952-11.397,32.688-16.812c31.866-16.069,75.01-30.342,92.463-57.906c4.461-7.046,6.14-18.473,9.34-24.283   c2.247-4.08,8.411-4.896,7.472-10.273c0.399,1.505-3.482,3.134-3.736,0.934C331.436,150.569,342.594,140.495,346.232,130.422z"
   id="path21" />&#10;	<path
   fill-rule="evenodd"
   clip-rule="evenodd"
   d="M77.25,36.091c7.441-13.146,29.974-2.976,47.632-2.802   c26.067,0.258,51.737-8.142,75.651-6.538c28.813,1.933,54.964,15.638,69.114,32.689c-18.568-14.5-45.291-31.016-81.256-30.821   c-19.053,0.104-38.58,7.634-63.51,6.538C106.123,34.332,89.279,27.845,77.25,36.091z"
   id="path22" />&#10;	<path
   fill-rule="evenodd"
   clip-rule="evenodd"
   d="M182.788,39.827c-2.311,0.118-1.588-1.144,0-0.935   c32.046-2.848,63.885,1.937,74.717,23.35C243.382,43.987,216.276,38.717,182.788,39.827z"
   id="path23" />&#10;	<path
   fill-rule="evenodd"
   clip-rule="evenodd"
   d="M134.222,48.232c-17.639-5.811-54.154-8.276-59.774,13.076   c-2.662-13.006,18.243-20.401,38.292-19.614C120.785,42.011,131.524,42.773,134.222,48.232z"
   id="path24" />&#10;	<path
   fill-rule="evenodd"
   clip-rule="evenodd"
   d="M315.411,148.167c19.058-3.155,22.938-26.103,19.613-48.566   c5.83,13.193,0.506,26.607-0.934,40.161C328.267,142.967,324.55,148.277,315.411,148.167z"
   id="path25" />&#10;	<path
   fill-rule="evenodd"
   clip-rule="evenodd"
   d="M47.363,228.488c2.129,1.295,0.348,6.501,0.934,9.34   c35.593,29.644,117.108,12.831,158.774-0.934c25.871-8.547,47.983-23.19,71.915-29.888   c-38.938,26.75-124.252,53.648-195.199,48.566C67.182,254.384,43.721,247.924,47.363,228.488z"
   id="path26" />&#10;<path
   style="fill:#ffffff;stroke:#000000;stroke-width:1.52802e-05;paint-order:stroke fill markers"
   d="m 70.672745,277.95868 c -18.65305,-2.24529 -32.238722,-9.21342 -37.226116,-19.0934 -2.764572,-5.47658 -3.151792,-7.65074 -3.107148,-17.44599 0.03361,-7.37409 0.311993,-10.82121 1.565991,-19.3911 4.294194,-29.34674 5.296644,-54.32438 2.724446,-67.88391 -1.714193,-9.03649 -3.248769,-12.48034 -9.076896,-20.37006 -6.503404,-8.80387 -8.042607,-12.77164 -8.453153,-21.79057 -0.299608,-6.58184 0.238536,-9.69187 2.484604,-14.358976 1.958783,-4.07016 4.253318,-7.007986 11.099408,-14.211215 5.91341,-6.221894 8.955281,-10.244332 10.808956,-14.293292 1.074782,-2.347629 1.311512,-3.732745 1.618093,-9.467498 0.320347,-5.992245 0.508425,-7.023604 1.741939,-9.552194 1.776193,-3.641033 7.323809,-9.155572 13.093046,-13.014981 9.476104,-6.339166 24.487023,-12.643968 34.161848,-14.348465 4.818472,-0.848913 16.705377,-0.727243 26.420387,0.270429 17.5573,1.803028 28.00503,1.56543 44.35716,-1.008752 23.92311,-3.766021 31.14697,-4.387341 41.74152,-3.590157 18.41522,1.385645 30.00369,6.124186 54.30054,22.203562 19.44252,12.866837 21.86749,14.170114 14.48725,7.786017 -20.42658,-17.669512 -37.76933,-27.267571 -55.99182,-30.987747 -3.55118,-0.724983 -7.57957,-1.06289 -15.06151,-1.26338 -11.7427,-0.314663 -16.82096,0.05164 -38.26404,2.76008 -24.80605,3.133207 -36.72288,3.449992 -47.7506,1.269357 -3.01436,-0.596064 -3.07745,-0.63681 -1.45434,-0.939261 1.69364,-0.315591 26.6527,-2.573675 43.63,-3.94727 34.6137,-2.800519 64.93713,-3.740307 86.53282,-2.681838 19.99238,0.979885 25.60417,1.907036 32.14748,5.311241 9.14328,4.756854 16.18824,13.176687 23.33768,27.892183 10.40736,21.421182 12.76532,26.035136 14.73256,28.82811 1.21444,1.724194 2.16444,3.174896 2.11111,3.223791 -0.0533,0.0489 -1.84216,-0.09569 -3.97518,-0.321281 -7.05879,-0.746577 -14.78572,-0.486305 -14.78572,0.498031 0,0.194987 2.78141,0.477448 6.18092,0.627695 8.13571,0.359574 14.14922,1.903329 21.20902,5.44466 6.22408,3.122109 10.35702,6.281245 14.00782,10.70728 6.44989,7.819501 9.38116,17.467831 8.0574,26.521071 -1.35182,9.24518 -4.73864,15.84648 -11.61624,22.64138 -3.79452,3.74891 -9.93197,8.1665 -14.2215,10.2363 -2.71898,1.31198 -2.95745,2.65054 -0.45172,2.53558 2.37192,-0.10883 1.9456,0.83991 -1.91568,4.26319 -3.98119,3.5296 -4.57786,4.65656 -7.66216,14.47223 -1.13104,3.59947 -2.67279,7.90531 -3.4261,9.56851 -4.12392,9.10508 -13.47793,18.7633 -26.88173,27.75602 -10.08137,6.76367 -20.78995,12.34071 -45.72904,23.81574 -18.33653,8.43703 -24.44602,11.55708 -35.47608,18.1172 -14.42926,8.58179 -17.9125,9.73217 -27.87472,9.20591 -7.47622,-0.39493 -10.40384,0.16707 -21.57261,4.14125 -12.73757,4.5324 -19.26641,6.22598 -31.67605,8.2168 -15.13746,2.42841 -36.450204,3.14654 -48.901845,1.64772 z m 57.066175,-22.7039 c 43.96125,-3.99303 89.90014,-16.34761 127.01176,-34.15794 10.81679,-5.19111 25.92439,-14.09676 23.91384,-14.09676 -3.03685,0 -17.96298,6.01365 -37.00284,14.90824 -22.59279,10.55437 -28.42338,12.89514 -43.09998,17.30308 -22.16942,6.65832 -44.93626,11.31185 -66.94455,13.68343 -5.61933,0.60553 -11.83033,0.83413 -22.54217,0.82968 -12.80893,-0.005 -15.706693,-0.14886 -21.674302,-1.07365 -13.744965,-2.13003 -24.718134,-5.71403 -32.588147,-10.64377 -6.373314,-3.99222 -6.276606,-3.85735 -6.438667,-8.97926 -0.151484,-4.78762 -1.007885,-6.23517 -1.512174,-2.55598 -0.368905,2.69145 0.415782,7.14033 1.70519,9.66778 4.418337,8.66066 17.815388,14.41955 36.753995,15.79918 8.36211,0.60915 32.458795,0.22057 42.418045,-0.68403 z m -17.2096,-11.44096 c 5.21372,-0.052 3.01568,-0.72281 -4.60539,-1.40551 -18.513193,-1.65843 -32.396858,-7.03541 -39.241342,-15.19771 -2.196208,-2.61905 -2.323041,-1.36355 -0.295268,2.92276 3.039769,6.42549 9.116424,10.3796 19.220703,12.50703 4.586337,0.96564 13.761065,1.67658 18.134407,1.40521 1.73308,-0.10754 4.78718,-0.21184 6.78689,-0.23178 z m 32.72249,-0.80426 c 0.81052,-0.49425 0.17439,-0.61077 -3.87822,-0.71038 -7.60073,-0.18683 -11.87706,0.16636 -11.87706,0.98094 0,0.6354 14.68311,0.38325 15.75528,-0.27056 z m 32.96488,-1.30131 c 16.32099,-2.98032 26.27144,-6.80296 53.4502,-20.53384 11.89819,-6.01104 19.2394,-9.41877 22.72342,-10.54802 5.03928,-1.63334 6.48098,-2.34538 6.48098,-3.20089 0,-1.91987 -16.902,4.47675 -37.32788,14.12687 -28.83167,13.62139 -42.90852,18.25431 -60.47092,19.90197 -10.99716,1.03173 -10.96447,1.37187 0.11609,1.20818 7.16623,-0.10587 12.09647,-0.41894 15.02811,-0.95427 z m -27.3053,-8.37696 c 6.84556,-0.46689 12.34097,-1.01958 12.21203,-1.22822 -0.53433,-0.86454 -51.12992,0.009 -51.42135,0.88769 -0.25305,0.76307 12.04573,1.59678 20.21835,1.37056 3.59948,-0.0996 12.14541,-0.56314 18.99097,-1.03003 z m 9.61092,-7.91355 c 46.32692,-3.64576 81.26146,-17.24713 103.51561,-40.30264 5.54594,-5.74565 8.65571,-9.85962 16.8036,-22.22979 7.0445,-10.69498 10.91581,-15.82919 14.8718,-19.72328 2.29374,-2.25784 2.46271,-2.57425 2.01027,-3.76427 -1.19328,-3.13855 0.15963,-8.48194 2.85989,-11.29525 1.21881,-1.26985 1.24419,-1.27157 5.37214,-0.36359 3.55465,0.78189 8.14647,0.92583 9.15519,0.287 1.00193,-0.63453 0.30724,-2.67193 -1.64959,-4.83791 -0.92431,-1.0231 -4.21415,-3.3555 -7.31073,-5.1831 -7.89739,-4.66104 -9.51875,-6.64964 -10.60925,-13.01229 -0.35372,-2.06387 -2.77323,-4.7915 -4.03044,-4.54373 -1.30562,0.25732 -2.49092,2.50725 -3.25305,6.17489 -0.41242,1.98468 -0.82291,3.68157 -0.9122,3.77086 -0.0893,0.0893 -3.41019,1.38433 -7.37977,2.87785 -3.96959,1.49353 -15.83436,6.30841 -26.36615,10.69973 -23.83473,9.93808 -34.06194,13.92031 -45.8115,17.8379 -28.39565,9.46781 -51.10574,13.30883 -75.07579,12.6978 -12.86552,-0.32796 -20.39096,-1.26203 -30.15388,-3.74278 -19.565341,-4.97152 -32.236378,-12.8732 -34.473564,-21.49777 -0.351949,-1.3568 -0.639907,-4.50426 -0.639907,-6.99437 0,-5.99194 -0.657572,-8.46065 -2.740796,-10.28975 -2.996146,-2.63065 -4.025654,-1.71211 -4.551868,4.06122 -0.325573,3.57201 -0.623287,4.47959 -2.580345,7.86617 -9.500194,16.43957 -11.434936,49.75556 -4.17889,71.95991 5.194409,15.89551 13.671882,22.73222 32.95823,26.57936 8.921111,1.77954 18.71536,2.75778 36.60072,3.65565 5.96924,0.29966 30.79832,-0.1549 37.57027,-0.68782 z M 139.51886,149.1152 c 1.84997,-0.96254 3.22407,-2.56715 4.66624,-5.44902 1.67052,-3.33819 1.62815,-4.37449 -0.19523,-4.77497 -1.78162,-0.39132 -2.92231,-0.0444 -5.75017,1.74902 -1.21384,0.7698 -2.73648,1.39964 -3.38365,1.39964 -1.51941,0 -6.439,-3.52384 -9.56252,-6.84951 -2.42659,-2.58363 -5.6281,-7.44337 -6.24785,-9.48395 -0.40831,-1.34438 2.09567,-4.23741 5.69791,-6.5832 1.38081,-0.89919 4.31029,-2.80807 6.50997,-4.24195 l 3.99942,-2.60707 v -9.06041 -9.060401 l 4.79066,-2.021513 c 5.55603,-2.344477 6.94767,-3.567048 7.02916,-6.175181 0.0542,-1.735679 -0.0509,-1.869618 -2.00354,-2.552165 -1.83626,-0.64187 -2.47004,-0.636926 -5.81734,0.04537 l -3.75655,0.765721 -3.30284,-3.056877 c -5.59951,-5.182531 -15.5666,-9.436698 -25.51855,-10.891865 -5.55469,-0.812206 -14.970551,-0.36017 -18.467757,0.886591 -4.272287,1.523079 -6.700471,2.928915 -8.957829,5.186268 -1.789595,1.789596 -4.107851,5.357865 -4.107851,6.322815 0,0.56338 4.286691,2.173477 8.296054,3.11603 2.236178,0.525703 7.883402,1.293765 12.549387,1.70681 18.680576,1.653659 23.446076,2.504512 28.600546,5.106484 l 2.91,1.468963 -9.3e-4,6.41633 -9.4e-4,6.41632 -2.51303,1.69672 c -1.38217,0.9332 -6.89003,5.04665 -12.2397,9.14101 -10.96816,8.39444 -18.254781,13.35889 -24.997167,17.0308 l -4.605388,2.50809 3.135135,-0.28496 c 3.170189,-0.28815 5.728366,-1.32694 11.892974,-4.82929 4.564496,-2.59327 4.878846,-2.61103 6.036896,-0.34105 0.54581,1.06987 0.99238,2.28113 0.99238,2.6917 0,1.65849 3.45965,0.72749 5.95756,-1.60319 l 1.35217,-1.26164 1.99083,2.41163 c 1.09497,1.32639 4.22882,4.62218 6.96412,7.32398 3.76632,3.72019 5.82383,5.33787 8.47799,6.66569 3.8627,1.93244 7.20675,2.30674 9.57943,1.07223 z m 183.64045,-2.19605 c 1.30291,-0.5731 4.33359,-2.38255 6.73486,-4.02101 l 4.36594,-2.97902 1.69378,-10.21071 c 2.15187,-12.97224 2.32443,-21.20611 0.56303,-26.86561 -0.61039,-1.96125 -1.22086,-3.454859 -1.35659,-3.319131 -0.13573,0.135733 0.0152,3.320431 0.33549,7.077101 0.97848,11.47808 -0.32913,20.88869 -3.96234,28.51616 -3.0617,6.42766 -7.14538,10.02945 -14.00409,12.35155 l -2.66627,0.90271 2.96364,-0.20502 c 1.63001,-0.11276 4.02966,-0.67392 5.33255,-1.24702 z m -130.70355,-6.09072 c 3.10095,-1.60356 5.01376,-5.88616 5.62072,-12.58425 0.17734,-1.95691 0.17079,-4.5692 -0.0145,-5.80507 -0.30479,-2.03252 -0.57869,-2.40754 -2.86886,-3.92813 -3.93507,-2.61274 -7.678,-3.77847 -12.27434,-3.82282 -3.28455,-0.0317 -4.1924,0.13289 -5.3026,0.96128 -1.57976,1.17875 -2.89203,2.9333 -3.33115,4.45386 -0.42756,1.4805 0.75262,1.87734 8.09745,2.72282 5.631,0.6482 5.97058,0.75097 7.26357,2.19807 2.2062,2.46917 1.89071,4.1665 -1.36374,7.33668 -1.49608,1.45735 -3.02312,3.3517 -3.39344,4.20968 -0.95459,2.21166 -0.8731,4.37646 0.17506,4.65037 1.94254,0.50764 6.07559,0.28818 7.39187,-0.39249 z M 43.143589,138.15772 c -1.054764,-2.54642 -4.090968,-4.67381 -9.008697,-6.31216 -2.48299,-0.82721 -5.229331,-1.98572 -6.102981,-2.57447 -3.811717,-2.56872 -5.415889,-7.14966 -5.459614,-15.59072 -0.02524,-4.8722 0.151939,-6.34428 1.090532,-9.06071 4.839047,-14.004935 20.967003,-22.568766 42.813932,-22.733896 6.613449,-0.04999 5.497597,-0.602462 -2.884187,-1.428 -19.544145,-1.92494 -35.077273,5.126452 -41.051738,18.635776 -2.41546,5.46178 -3.373237,14.82704 -2.12146,20.74389 1.388624,6.56368 5.690259,12.42298 11.579658,15.77274 2.635176,1.49884 11.170646,4.62771 11.560562,4.2378 0.110495,-0.1105 -0.07671,-0.87111 -0.416007,-1.69025 z M 320.2624,135.42087 c 5.84371,-8.172 7.69022,-17.40928 5.19704,-25.99855 -1.97038,-6.78821 -8.54046,-14.155741 -15.79581,-17.713069 -5.49702,-2.695214 -8.82272,-3.501016 -15.77246,-3.821604 -10.28816,-0.474593 -16.02099,0.988156 -26.77226,6.831036 -8.07898,4.390593 -12.63077,6.072217 -17.43999,6.443077 -6.63685,0.5118 -10.74289,-0.97683 -18.45581,-6.691045 -5.02938,-3.726089 -8.07245,-5.446521 -10.60153,-5.993709 l -1.64899,-0.356773 0.27167,2.632222 c 0.59553,5.770101 4.39042,10.658155 10.58934,13.639715 5.38365,2.58943 8.82649,3.27571 17.8878,3.56566 13.96676,0.44692 24.98544,-2.13771 33.49848,-7.85769 6.78799,-4.560893 8.09778,-5.060422 13.30191,-5.073065 7.51616,-0.01826 12.86842,1.988577 17.76825,6.662225 4.7242,4.50612 7.09998,10.71863 6.53217,17.08124 -0.15466,1.73308 -1.05198,5.33255 -1.99406,7.99883 -1.82014,5.15138 -2.19654,8.91862 -1.18191,11.8292 0.52752,1.51323 0.56449,1.52982 1.51184,0.67831 0.5341,-0.48007 1.93104,-2.21527 3.10432,-3.85601 z m -139.4081,1.4441 c 0.27115,-0.71318 0.42936,-2.73107 0.35158,-4.4842 l -0.14141,-3.18751 -4.12061,-0.85941 c -2.94002,-0.61317 -5.78733,-0.82049 -9.93794,-0.72362 -5.15397,0.1203 -6.06396,0.27358 -7.98007,1.34418 -2.39928,1.34056 -4.49883,4.04756 -4.28093,5.51948 0.21977,1.48453 2.2547,1.76622 12.04251,1.66699 8.21889,-0.0833 9.15701,-0.006 10.9075,0.90154 2.54796,1.32067 2.5907,1.31827 3.15937,-0.17745 z M 41.893622,127.20228 c 1.065513,-0.40888 0.957283,-1.03429 -0.245024,-1.41589 -0.556511,-0.17663 -2.946563,-2.15468 -5.311227,-4.39566 -2.364664,-2.24099 -4.504162,-4.07453 -4.754441,-4.07453 -0.581207,0 -6.17e-4,2.61894 1.090184,4.91764 1.811091,3.81659 6.141447,6.14999 9.220508,4.96844 z m 186.921448,-1.57875 c 0,-0.23027 -0.57457,-0.99325 -1.27684,-1.69551 -2.13731,-2.13731 -4.33785,-2.44943 -12.56488,-1.78221 -8.39604,0.68094 -10.63693,0.33776 -12.95929,-1.9846 l -1.43936,-1.43936 1.03119,-1.09765 c 1.35611,-1.44352 1.30524,-2.24711 -0.14224,-2.24711 -0.91626,0 -1.24525,0.32704 -1.50117,1.49223 -0.43831,1.99557 0.0768,4.50862 1.10855,5.4082 2.14865,1.87343 3.07252,2.01113 13.68549,2.0398 8.72028,0.0236 10.66027,0.15833 11.87705,0.8251 1.72271,0.94399 2.1815,1.04518 2.1815,0.48111 z M 32.955559,113.38656 c -1.243264,-6.85619 0.524176,-10.94512 7.661931,-17.725653 2.854619,-2.711759 5.052407,-5.068278 4.883973,-5.236709 -0.168434,-0.168436 -3.268583,1.170122 -6.889219,2.974576 -5.996035,2.988301 -6.558265,3.379269 -6.305845,4.384989 0.15242,0.607296 -0.09934,3.743967 -0.559473,6.970387 -0.460131,3.22642 -0.726358,6.68814 -0.591615,7.69272 0.234086,1.74525 1.713206,4.64252 2.148088,4.20763 0.11395,-0.11395 -0.04258,-1.58452 -0.34784,-3.26794 z m 55.973298,1.26653 c 4.07619,-1.08475 6.042328,-2.44391 7.146642,-4.94039 1.118469,-2.5285 0.829706,-6.29108 -0.50429,-6.57087 -1.795297,-0.37654 -4.711201,0.60592 -7.376063,2.48523 -1.554793,1.09648 -2.953052,1.99359 -3.107236,1.99359 -0.154183,0 -1.394856,-0.88098 -2.757042,-1.95773 -3.180879,-2.51434 -9.167529,-5.39216 -14.704379,-7.068487 -3.777705,-1.143732 -5.240941,-1.326003 -10.907498,-1.358721 -5.888718,-0.034 -6.798411,0.07702 -9.078456,1.107877 -2.85781,1.292083 -6.025433,4.451111 -7.141419,7.122041 -0.41104,0.98376 -0.747345,1.98015 -0.747345,2.21422 0,0.70013 2.402424,0.49277 9.257115,-0.79903 3.573988,-0.67354 8.710763,-1.35952 11.415055,-1.52443 4.605953,-0.28085 5.015803,-0.22938 6.480947,0.81389 1.975391,1.4066 4.237553,4.93498 4.938222,7.70232 l 0.53964,2.13134 6.832646,-0.29211 c 3.757957,-0.16066 8.129014,-0.63709 9.713461,-1.05874 z M 334.88803,97.076734 c -1.88517,-6.854422 -7.4765,-11.510125 -17.11625,-14.252101 -3.28684,-0.934927 -5.06098,-1.105918 -11.63466,-1.121368 -4.26605,-0.01002 -8.8472,0.192879 -10.18034,0.450892 -2.09362,0.405201 -1.23494,0.513602 6.30212,0.795607 10.12694,0.378907 14.20047,1.243872 20.54619,4.362752 4.40134,2.163229 9.18857,6.433151 10.9534,9.769783 1.22986,2.325188 1.76984,2.322532 1.12954,-0.0056 z M 189.98716,94.04936 c 13.37727,-5.651063 22.31829,-8.203277 32.28341,-9.215309 6.76251,-0.686784 10.99752,-0.294958 18.98585,1.756583 9.24167,2.373413 13.14136,2.164401 16.47837,-0.883212 0.82887,-0.75698 0.96545,-1.231752 0.66038,-2.295466 -3.93481,-13.719897 -19.62435,-22.338711 -40.64387,-22.327106 -19.30964,0.01066 -40.22783,8.662614 -45.35246,18.758202 -0.88934,1.752015 -1.03811,5.72519 -0.28822,7.697542 0.87223,2.294167 3.31445,4.927034 6.66938,7.190034 1.78972,1.207218 3.49558,2.201681 3.79082,2.209927 0.29523,0.0082 3.63259,-1.292795 7.41634,-2.891195 z m 77.58673,-5.064458 c 0.47743,-0.575271 0.23398,-0.875537 -1.37566,-1.696722 -2.29218,-1.16938 -3.72353,-1.274587 -4.09708,-0.301134 -0.31869,0.830478 2.33251,2.676555 3.86126,2.68866 0.56726,0.0045 1.29243,-0.30637 1.61148,-0.690804 z m 7.48967,-4.824764 c 1.63739,-0.684148 3.19884,-2.418231 3.19884,-3.552519 0,-0.352264 -0.57484,-0.61957 -1.33314,-0.619924 -0.73323,-3.49e-4 -3.58307,-0.545724 -6.33299,-1.211944 -5.20946,-1.2621 -8.08284,-1.521131 -8.54676,-0.770487 -0.26047,0.421442 3.38888,2.467834 4.4009,2.467834 1.15669,0 5.57487,1.55078 5.27321,1.850896 -0.18277,0.18183 -1.54701,0.330604 -3.03166,0.330604 -2.91771,0 -3.959,0.874868 -1.98363,1.666597 1.72335,0.690721 6.53879,0.597901 8.35523,-0.161057 z M 131.43661,70.065357 c 0.28975,-1.074752 0.44094,-3.923349 0.33599,-6.330217 -0.30184,-6.922469 -3.11492,-11.439388 -6.64186,-10.664742 -1.8811,0.41316 -1.89911,0.787238 -0.0894,1.856274 0.84747,0.500611 1.96897,1.956456 2.77279,3.599398 1.21839,2.490305 1.36883,3.371209 1.54582,9.051776 0.17239,5.532948 0.27782,6.181187 0.87296,5.367294 0.37228,-0.509133 0.91394,-1.805036 1.20368,-2.879783 z m 125.53972,-9.381602 c -2.57655,-5.050462 -8.7698,-10.832765 -15.17387,-14.167026 -11.45065,-5.961746 -23.59089,-8.359265 -42.55883,-8.404741 -12.35554,-0.02962 -18.1127,0.396655 -17.79553,1.317633 0.13606,0.395064 1.70849,0.516495 5.23795,0.404499 6.33715,-0.201089 21.44759,0.692443 27.7709,1.642191 18.50626,2.779599 30.99567,8.319165 39.56656,17.549403 1.73308,1.866403 3.31911,3.41982 3.52449,3.452033 0.20539,0.03222 -0.0519,-0.775077 -0.57167,-1.793992 z M 79.702757,53.063098 c 3.062923,-3.062919 7.626159,-5.440717 13.61695,-7.095478 3.442266,-0.950814 5.077106,-1.073762 14.543333,-1.093729 10.92018,-0.02303 16.38153,0.633636 23.77472,2.85866 1.29692,0.390315 2.4523,0.615396 2.56752,0.500181 0.56807,-0.568077 -1.62507,-2.712794 -3.90334,-3.817155 -3.93186,-1.905915 -10.06329,-2.771482 -19.77262,-2.791277 -9.55484,-0.01948 -14.560012,0.682888 -21.570489,3.026957 -5.097665,1.704488 -7.837881,3.21244 -10.831015,5.960353 -2.752626,2.527106 -3.938838,5.106118 -3.923936,8.531269 l 0.0116,2.666278 1.403615,-3.033009 c 0.853805,-1.844942 2.453426,-4.082813 4.083662,-5.71305 z m 98.755883,1.254904 c 1.05557,-3.267447 2.5075,-5.589396 5.3388,-8.537897 1.56309,-1.627793 2.84197,-3.081735 2.84197,-3.230982 0,-0.149247 -0.70898,-0.11079 -1.57552,0.08546 -3.75564,0.850562 -6.44609,3.218878 -8.29011,7.297519 -1.1566,2.558175 -1.32123,8.112686 -0.30893,10.42272 l 0.63732,1.454334 0.40047,-2.885767 c 0.22025,-1.587171 0.65045,-3.659596 0.956,-4.605387 z m 89.77708,3.044745 c -4.99261,-6.1111 -15.89832,-14.196923 -26.08768,-19.342193 -7.99541,-4.037403 -13.21799,-6.001594 -21.81658,-8.205127 -9.82382,-2.51752 -16.17784,-3.313018 -26.42038,-3.307727 -9.898,0.0051 -13.00189,0.297291 -32.48011,3.057461 -20.85405,2.955133 -22.87269,3.143831 -33.69205,3.149453 -9.40085,0.0049 -10.90413,-0.120469 -19.63349,-1.637172 -11.60992,-2.017191 -19.971356,-2.305874 -24.195132,-0.835349 -2.516181,0.876019 -6.830644,4.430134 -6.830644,5.626866 0,0.278136 1.0941,-0.04872 2.43133,-0.726346 6.397282,-3.24175 13.725894,-3.58844 29.321606,-1.3871 8.51981,1.202573 11.13585,1.367887 21.57261,1.363221 12.88964,-0.0058 14.05735,-0.12833 35.14638,-3.68912 23.56062,-3.978106 41.02835,-2.927171 60.11244,3.616626 13.89082,4.763065 30.51756,13.9702 41.92253,23.2148 2.48891,2.01746 2.74348,1.665205 0.64917,-0.898293 z"
   id="path50" /><path
   style="fill:#ffffff;stroke:#000000;stroke-width:1.52802e-05;paint-order:stroke fill markers"
   d="m 181.30686,86.22548 c 0,-2.115095 1.19371,-4.900974 2.95961,-6.907145 2.23775,-2.542222 5.96528,-4.541198 12.31089,-6.602002 2.66627,-0.865903 5.88919,-2.012691 7.16203,-2.548417 2.20515,-0.928127 2.35833,-0.934161 3.24913,-0.127994 0.52236,0.472722 1.16955,2.05214 1.46668,3.57931 1.15833,5.95345 1.48677,5.232193 -2.51289,5.518367 -3.15955,0.226065 -4.16691,0.583383 -9.61494,3.41049 -6.53609,3.391728 -10.22586,4.711897 -13.16939,4.711897 -1.56668,0 -1.85112,-0.158963 -1.85112,-1.034506 z"
   id="path51" /><path
   style="fill:#ffffff;stroke:#000000;stroke-width:1.91002e-06;paint-order:stroke fill markers"
   d="M 92.804631,79.920948 C 91.439854,79.81798 90.326413,79.613445 89.148016,79.249243 l -0.626753,-0.193709 0.657052,-0.256537 c 2.40641,-0.93955 5.425527,-1.500084 8.504391,-1.578937 2.174342,-0.05569 4.001984,0.136455 5.617614,0.590588 1.00748,0.283188 1.01168,0.293722 0.23779,0.596295 -2.91566,1.139969 -7.367675,1.767945 -10.733479,1.514005 z"
   id="path52" /><path
   style="fill:#ffffff;stroke:#000000;stroke-width:2.70118e-06;paint-order:stroke fill markers"
   d="m 248.38878,80.456043 c -0.77866,-0.36479 -1.66171,-0.551056 -3.99001,-0.841641 -1.16038,-0.144822 -2.38782,-0.340359 -2.72763,-0.434525 -1.9539,-0.541454 -2.83249,-1.591342 -2.83249,-3.384745 v -0.467118 l 0.7927,-0.01047 c 2.99771,-0.03958 4.65192,0.261864 6.23449,1.136119 0.91319,0.504471 1.98997,1.608019 2.45545,2.516488 0.35858,0.699844 0.66637,1.529128 0.61525,1.657671 -0.0156,0.03933 -0.26213,-0.03797 -0.54776,-0.171782 z"
   id="path53" /><path
   style="fill:#ffffff;stroke:#000000;stroke-width:1.52802e-05;paint-order:stroke fill markers"
   d="m 256.93218,140.18183 v -6.74975 l 2.90978,-1.08818 c 1.60038,-0.59851 5.57698,-2.71914 8.83689,-4.71252 9.33976,-5.71112 12.39775,-7.02114 18.23498,-7.81169 l 3.07649,-0.41666 -0.3289,2.63245 c -1.20889,9.67561 -6.91758,16.58466 -17.13303,20.73557 -2.87039,1.16635 -10.07584,3.17186 -13.77829,3.83495 l -1.81792,0.32558 z"
   id="path54" /><path
   style="fill:#ffffff;stroke:#000000;stroke-width:1.52802e-05;paint-order:stroke fill markers"
   d="m 256.47384,171.90831 c -2.48167,-5.12644 -0.56921,-10.58559 5.20425,-14.85565 3.06468,-2.26665 8.59085,-4.79995 12.0906,-5.54258 l 1.56601,-0.33229 -0.76368,1.85434 c -1.34074,3.25555 -6.65907,11.86105 -8.82186,14.27452 -1.14979,1.28306 -3.48301,3.30624 -5.18493,4.49597 l -3.09439,2.16314 z"
   id="path55" /><path
   style="fill:#ffffff;stroke:#000000;stroke-width:1.52802e-05;paint-order:stroke fill markers"
   d="m 207.96963,163.40097 c 0,-0.51627 -0.54509,-3.18861 -1.21131,-5.93853 -1.62516,-6.70801 -1.60603,-8.04506 0.12056,-8.4285 3.79996,-0.84389 10.95881,-2.89842 18.54275,-5.32159 8.9357,-2.85509 16.43047,-4.77573 20.79776,-5.32973 l 2.6186,-0.33218 -0.31785,2.31898 c -0.70693,5.15759 -4.05086,10.02355 -9.17075,13.34495 -3.40733,2.21041 -8.24412,3.99075 -18.85603,6.94057 -4.44363,1.2352 -8.85416,2.56957 -9.80118,2.96526 -2.26226,0.94524 -2.72255,0.90817 -2.72255,-0.21923 z"
   id="path56" /><path
   style="fill:#ffffff;stroke:#000000;stroke-width:1.52802e-05;paint-order:stroke fill markers"
   d="m 218.55071,199.11577 c -0.44616,-1.39613 -1.71534,-4.17454 -2.8204,-6.17425 -2.79815,-5.06351 -3.95882,-8.73849 -3.7839,-11.98081 l 0.14383,-2.6662 5.8144,-1.68506 c 9.30798,-2.69751 20.81521,-7.51762 26.47154,-11.08831 l 1.80845,-1.14162 0.83466,4.70664 c 1.02413,5.77508 2.27604,9.28473 3.83399,10.74834 l 1.18285,1.11123 -6.88395,5.11365 c -3.78617,2.8125 -9.05813,6.54048 -11.71548,8.28439 -4.99827,3.28016 -12.46166,7.32877 -13.48864,7.31708 -0.32238,-0.004 -0.95119,-1.14896 -1.39735,-2.54508 z"
   id="path57" /><path
   style="fill:#ffffff;stroke:#000000;stroke-width:1.52802e-05;paint-order:stroke fill markers"
   d="m 163.97606,174.13105 -2.54509,-0.14652 v -6.76156 c 0,-3.71885 0.0791,-6.76155 0.17579,-6.76155 0.0967,0 1.95065,-0.44174 4.11992,-0.98164 2.16927,-0.5399 9.7773,-2.16287 16.90675,-3.6066 14.65563,-2.96781 13.96744,-3.01803 15.3848,1.12261 0.73772,2.15515 2.39561,11.21393 2.09623,11.45388 -0.079,0.0633 -3.96128,1.0119 -8.62727,2.10794 -12.55199,2.94846 -20.48007,3.97825 -27.51113,3.57344 z"
   id="path58" /><path
   style="fill:#ffffff;stroke:#000000;stroke-width:1.52802e-05;paint-order:stroke fill markers"
   d="m 170.15697,213.17203 c 0,-0.6773 -0.34348,-5.33087 -0.76328,-10.34127 -0.99237,-11.84399 -0.8027,-12.7979 2.5447,-12.7979 4.40318,0 16.8521,-3.5202 25.68151,-7.262 l 5.40795,-2.29182 0.33063,2.64629 c 0.48045,3.84537 1.41713,6.6824 4.57339,13.85186 1.54649,3.51288 2.95194,6.97347 3.12322,7.69021 l 0.31141,1.30315 -8.9607,2.95209 c -12.00494,3.955 -16.41979,4.8706 -25.09836,5.20518 l -7.15047,0.27566 z"
   id="path59" /><path
   style="fill:#ffffff;stroke:#000000;stroke-width:1.52802e-05;paint-order:stroke fill markers"
   d="m 136.22253,214.64037 c 0,-1.46255 -0.54537,-5.33698 -1.21194,-8.60985 -0.66657,-3.27286 -1.21195,-6.76122 -1.21195,-7.7519 v -1.80125 l 6.90809,-0.28244 c 5.71045,-0.23347 14.25795,-1.3916 19.07259,-2.5842 0.99264,-0.24588 1.0214,-0.0641 1.32708,8.38693 0.17184,4.75104 0.45141,9.86007 0.62125,11.3534 0.29094,2.55798 0.24218,2.73603 -0.84229,3.07591 -0.63311,0.19843 -6.44124,0.47593 -12.90697,0.61668 l -11.75586,0.25591 z"
   id="path60" /><path
   style="fill:#ffffff;stroke:#000000;stroke-width:1.52802e-05;paint-order:stroke fill markers"
   d="m 130.88998,173.68574 c -0.66657,-0.11958 -1.37693,-0.37485 -1.57859,-0.56725 -0.20165,-0.19241 0.14703,-1.8646 0.77485,-3.71598 0.62781,-1.85138 1.29352,-4.18421 1.47935,-5.18406 l 0.33788,-1.81792 3.73506,-0.0169 c 2.05428,-0.009 5.48026,-0.33194 7.61328,-0.71697 2.13302,-0.38504 5.56888,-0.84509 7.63525,-1.02235 l 3.75703,-0.32228 v 6.85659 6.85658 l -11.27109,-0.066 c -6.19909,-0.0363 -11.81645,-0.16386 -12.48302,-0.28344 z"
   id="path61" /><path
   style="fill:#ffffff;stroke:#000000;stroke-width:1.52802e-05;paint-order:stroke fill markers"
   d="m 117.21471,216.57558 c -3.17749,-0.46226 -3.26524,-0.51388 -3.80242,-2.23687 -0.30243,-0.97003 -1.8229,-4.49056 -3.37883,-7.82341 -1.55594,-3.33285 -2.96971,-6.63007 -3.14173,-7.32716 -0.39552,-1.6028 0.25984,-1.88852 5.09192,-2.21994 2.95644,-0.20278 4.14699,-0.0559 6.37137,0.78604 5.55299,2.10184 9.60558,8.356 10.75901,16.60387 0.23001,1.64477 0.13373,1.82339 -1.24119,2.30269 -1.75528,0.6119 -6.10542,0.57711 -10.65813,-0.0852 z"
   id="path62" /><path
   style="fill:#ffffff;stroke:#000000;stroke-width:1.52802e-05;paint-order:stroke fill markers"
   d="m 105.21222,173.50675 c -3.62637,-0.46897 -10.680569,-1.94316 -10.680569,-2.23203 0,-0.10799 0.303979,-0.78542 0.67551,-1.50541 0.37153,-0.71998 1.116179,-3.34443 1.654775,-5.8321 0.538597,-2.48768 1.073188,-4.61697 1.187981,-4.73176 0.114794,-0.1148 1.06086,0.0919 2.102373,0.4594 2.66145,0.93902 7.6134,1.67019 15.183,2.24181 3.57648,0.27008 6.593,0.58136 6.70337,0.69173 0.11037,0.11037 0.045,2.72881 -0.14529,5.81874 l -0.34597,5.61806 -6.59979,-0.0615 c -3.62989,-0.0338 -8.01081,-0.24395 -9.73539,-0.46697 z"
   id="path63" /><path
   style="fill:#ffffff;stroke:#000000;stroke-width:1.52802e-05;paint-order:stroke fill markers"
   d="m 82.896986,170.88414 c -0.933197,-0.35937 -2.500083,-0.67 -3.48197,-0.69029 -2.079314,-0.0429 -1.958227,0.22777 -3.098272,-6.92694 -0.904301,-5.67523 -0.5345,-8.70669 1.260246,-10.33091 0.810037,-0.73307 1.134183,-0.64905 4.725169,1.2249 2.120508,1.10658 4.778912,2.13583 5.907563,2.28721 1.977088,0.26518 2.041537,0.32803 1.763273,1.71935 -0.158852,0.79425 -1.052413,3.13529 -1.985693,5.20229 -1.800477,3.98766 -1.979507,5.01116 -1.224093,6.99805 0.437195,1.14991 0.373342,1.24073 -0.848361,1.20662 -0.726627,-0.0203 -2.084664,-0.33091 -3.017862,-0.69028 z"
   id="path64" /><path
   style="fill:#ffffff;stroke:#000000;stroke-width:1.52802e-05;paint-order:stroke fill markers"
   d="m 65.065309,165.52216 c -2.678557,-1.87614 -3.194294,-5.69303 -1.512068,-11.19059 1.067045,-3.48714 3.703664,-8.89826 4.335755,-8.89826 0.67906,0 1.434137,3.02247 1.441086,5.76848 0.007,2.78575 -2.344025,15.07696 -2.883934,15.07696 -0.165357,0 -0.786734,-0.34047 -1.380839,-0.75659 z"
   id="path65" /><path
   style="fill:#ffffff;stroke:#000000;stroke-width:1.91002e-06;paint-order:stroke fill markers"
   d="m 57.688546,143.30985 c 0,-0.20276 0.183724,-1.03123 0.315232,-1.42148 0.203548,-0.60402 0.602668,-1.40219 1.212047,-2.42389 0.644692,-1.0809 0.910109,-1.58698 1.107035,-2.11081 l 0.133191,-0.3543 0.159883,0.19001 c 0.236263,0.28078 0.30213,0.60938 0.267774,1.33585 -0.08542,1.80625 -1.403715,4.15043 -2.671301,4.7501 -0.404776,0.19149 -0.523861,0.19934 -0.523861,0.0345 z"
   id="path66" /><path
   style="fill:#ffffff;stroke:#000000;stroke-width:1.91002e-06;paint-order:stroke fill markers"
   d="m 65.483923,202.62193 c -2.717841,-2.98632 -4.830696,-7.2234 -6.548359,-13.13196 -0.14978,-0.51523 -0.263936,-0.94517 -0.25368,-0.95543 0.02147,-0.0215 1.339733,1.3739 2.106016,2.22918 2.938215,3.27947 4.484258,6.37033 5.017466,10.03096 0.12662,0.86928 0.23223,2.32718 0.168581,2.32718 -0.01927,0 -0.239784,-0.22497 -0.490024,-0.49993 z"
   id="path67" /><path
   style="fill:#ffffff;stroke:#000000;stroke-width:1.91002e-06;paint-order:stroke fill markers"
   d="m 81.442653,211.21101 c -4.296278,-0.8161 -6.35929,-1.35723 -8.24122,-2.16169 -1.183699,-0.50598 -2.460397,-1.25711 -3.120757,-1.83605 -0.235446,-0.20642 -0.238971,-0.21515 -0.123067,-0.30498 0.187906,-0.14564 0.474428,-0.20059 1.566049,-0.30038 0.56034,-0.0512 1.225367,-0.13579 1.477837,-0.18794 1.105472,-0.22834 1.777208,-0.6797 2.171872,-1.45935 0.172482,-0.34073 0.179231,-0.38509 0.178319,-1.17219 -0.0016,-1.39761 -0.269373,-2.32814 -1.275328,-4.43218 -1.080651,-2.26027 -1.345619,-3.05889 -1.484915,-4.47561 -0.06361,-0.647 -0.03136,-1.81792 0.05008,-1.81792 0.07878,0 1.232509,0.64297 1.711257,0.95367 0.813989,0.52829 1.49204,1.07977 2.214903,1.80147 2.910169,2.90549 4.785128,6.97585 7.014158,15.22708 l 0.151422,0.56053 -0.130301,-0.004 c -0.07167,-0.002 -1.043805,-0.17794 -2.160309,-0.39003 z"
   id="path68" /><path
   style="fill:#ffffff;stroke:#000000;stroke-width:1.91002e-06;paint-order:stroke fill markers"
   d="m 102.1366,215.32387 c -0.1,-0.0113 -0.46811,-0.0506 -0.81806,-0.0875 -1.489374,-0.15691 -3.363715,-0.58681 -5.116163,-1.17344 -0.8052,-0.26954 -3.792563,-1.38328 -3.917555,-1.46053 -0.0199,-0.0123 0.02889,-0.21636 0.108411,-0.45347 0.294154,-0.87706 0.399771,-1.54092 0.399784,-2.51286 1.4e-5,-1.057 -0.133115,-1.8139 -0.484496,-2.75455 -0.450078,-1.20487 -0.956958,-2.08725 -2.594858,-4.51712 -0.606573,-0.89987 -1.259908,-1.90455 -1.451856,-2.23262 -0.755657,-1.29154 -1.364532,-2.78706 -1.554537,-3.81825 -0.06458,-0.35049 -0.06291,-0.4201 0.01117,-0.46698 0.199284,-0.1261 1.778725,-0.0195 2.834618,0.19135 0.856567,0.17103 1.763578,0.46645 3.096067,1.00842 2.904482,1.18133 3.750646,1.41992 5.552112,1.56551 l 0.488234,0.0395 0.07046,0.9173 c 0.108124,1.40756 0.376815,2.7891 0.80307,4.12919 0.350194,1.10096 0.908819,2.3962 2.006759,4.65291 1.71611,3.52728 2.24802,4.88419 2.68335,6.84518 l 0.037,0.16664 -0.98586,-0.009 c -0.54222,-0.005 -1.06766,-0.0183 -1.16765,-0.0295 z"
   id="path69" /></g>&#10;</svg>
